<svg width="158" height="177" viewBox="0 0 158 177" fill="none" xmlns="http://www.w3.org/2000/svg">
<g clip-path="url(#clip0_722_4134)">
<path d="M98.3356 20.9374C106.07 26.4472 89.4964 31.957 87.2867 24.2433C85.0769 19.8354 96.1258 18.7334 98.3356 20.9374Z" fill="#D63185"/>
<path d="M127.063 39.6709C120.433 48.4866 117.119 51.7925 107.175 49.5886C123.748 38.5689 121.538 24.2433 110.489 17.6315C103.86 14.3256 102.755 6.61183 88.3915 11.0197C90.6013 -2.20391 103.86 2.01464e-05 116.014 7.71379C118.224 8.81576 140.322 16.5295 127.063 39.6709Z" fill="#D63185"/>
<path d="M79.5523 33.0591C74.0278 25.3453 81.7621 22.0394 83.9719 23.1414C89.4964 38.5689 108.28 19.8355 106.07 29.7532C101.65 38.5689 87.2866 41.8748 79.5523 33.0591Z" fill="#D63185"/>
<path d="M103.86 14.3257C108.28 15.4277 108.28 24.2434 102.755 23.1414C104.965 13.2237 77.3426 20.9375 76.2377 25.3454C75.1328 26.4473 75.1328 27.5493 75.1328 28.6513C71.8181 30.8552 66.2936 24.2434 71.8181 19.8355C80.6572 11.0198 98.3356 8.81586 103.86 14.3257Z" fill="#D63185"/>
<path d="M75.1328 30.8552C91.7063 50.6906 111.594 31.9572 107.175 26.4473C107.175 22.0395 109.385 20.9375 108.28 17.6316C117.119 23.1414 118.224 29.7532 114.909 36.365C110.489 48.4867 92.8112 49.5887 82.8671 46.2828C75.1328 44.0788 67.3986 35.2631 75.1328 30.8552Z" fill="#D63185"/>
<path d="M108.28 79.3417C106.07 71.6279 129.273 72.7299 134.797 53.9965C149.161 69.424 113.804 88.1575 108.28 79.3417Z" fill="#D63185"/>
<path d="M83.9719 9.91773C76.2376 11.0197 62.9789 18.7335 69.6083 27.5492C62.9789 42.9768 86.1817 56.2004 103.86 48.4866C110.489 55.0984 74.0279 66.1181 59.6642 45.1807C47.5104 24.2433 70.7132 -1.10195 85.0768 8.81576C85.0768 8.81576 85.0768 9.91773 83.9719 9.91773Z" fill="#D63185"/>
<path d="M135.902 48.4866C127.063 65.0161 118.224 71.6279 97.2308 70.5259C91.7063 70.5259 66.2937 68.322 66.2937 53.9964C68.5035 57.3023 86.1818 65.0161 104.965 52.8945C120.434 55.0984 130.378 41.8748 131.483 34.161C142.531 36.3649 139.217 40.7728 135.902 48.4866Z" fill="#D63185"/>
<path d="M85.0768 6.61184C60.7692 -3.30587 40.881 35.263 64.0838 51.7925C61.8741 57.3024 32.0419 49.5886 40.881 25.3453C50.8251 -6.61177 86.1817 -2.2039 85.0768 6.61184Z" fill="#D63185"/>
<path d="M104.965 72.7298C108.28 72.7298 103.86 80.4436 92.8112 82.6476C68.5035 88.1574 44.1958 68.322 45.3007 50.6905C50.8252 53.9964 56.3497 56.2003 61.8741 56.2003C65.1888 65.0161 75.1329 69.4239 83.972 71.6279C95.021 73.8318 98.3357 72.7298 104.965 72.7298Z" fill="#D63185"/>
<path d="M129.273 105.789C129.273 104.687 129.273 104.687 130.378 103.585C125.958 101.381 113.804 104.687 111.594 106.891C111.594 104.687 110.489 104.687 111.594 102.483C107.175 102.483 98.3356 109.095 96.1258 110.197C96.1258 109.095 95.0209 109.095 95.0209 107.993C93.916 109.095 92.8111 110.197 89.4964 113.503C83.9719 120.115 81.7621 132.236 82.867 133.338C83.9719 133.338 85.0768 133.338 86.1817 132.236C87.2866 126.726 89.4964 121.216 93.916 115.707C92.8111 117.911 87.2866 126.726 88.3915 132.236C89.4964 132.236 91.7062 130.032 96.1258 128.93C99.4405 121.216 100.545 115.707 107.175 109.095C102.755 115.707 99.4405 119.013 98.3356 127.828C103.86 127.828 113.804 124.522 117.119 119.013V117.911C119.329 115.707 122.643 113.503 124.853 111.299C119.329 117.911 116.014 121.216 117.119 122.318C117.119 123.42 122.643 123.42 131.482 122.318C133.692 119.013 135.902 117.911 139.217 115.707C137.007 116.809 133.692 120.115 133.692 122.318C138.112 121.216 148.056 125.624 152.475 124.522C149.161 126.726 137.007 122.318 134.797 124.522C137.007 126.726 140.322 128.93 144.741 131.134C140.322 128.93 137.007 126.726 132.587 124.522C130.378 124.522 127.063 124.522 124.853 124.522C127.063 130.032 130.378 132.236 134.797 133.338C123.748 132.236 129.273 122.318 113.804 125.624C111.594 126.726 109.385 126.726 108.28 127.828C110.489 133.338 117.119 138.848 122.643 139.95C117.119 142.154 108.28 131.134 106.07 127.828C100.545 128.93 96.1258 130.032 95.0209 132.236C98.3356 135.542 104.965 138.848 110.489 142.154C103.86 139.95 98.3356 137.746 92.8111 133.338C90.6013 134.44 87.2866 134.44 85.0768 136.644C88.3915 142.154 98.3356 145.46 102.755 147.664C101.65 145.46 102.755 145.46 102.755 144.358C107.175 147.664 116.014 148.766 121.538 148.766C121.538 147.664 120.433 146.562 120.433 145.46C123.748 146.562 128.168 145.46 131.482 145.46C130.378 144.358 130.378 143.256 130.378 142.154C134.797 143.256 137.007 142.154 142.531 139.95C141.426 137.746 141.426 136.644 140.322 135.542C143.636 136.644 149.161 134.44 152.475 133.338C151.371 131.134 152.475 131.134 151.371 130.032C153.58 130.032 155.79 128.93 158 124.522C154.685 121.216 151.371 120.115 150.266 120.115C150.266 119.013 151.371 119.013 152.475 116.809C146.951 111.299 141.426 115.707 143.636 110.197C139.217 106.891 138.112 105.789 129.273 105.789Z" fill="#1B460C"/>
<path d="M85.077 85.9535C85.077 124.522 49.7204 160.887 19.8882 176.315C51.9301 171.907 90.6015 123.42 91.7064 85.9535H85.077Z" fill="#1B460C"/>
<path d="M39.7762 79.3417C39.7762 78.2398 40.8811 78.2398 40.8811 77.1378C46.4056 78.2398 55.2448 88.1575 56.3497 92.5653C56.3497 90.3614 57.4545 90.3614 58.5594 88.1575C62.979 90.3614 66.2937 103.585 67.3986 105.789C68.5035 104.687 69.6084 105.789 70.7133 103.585C70.7133 105.789 71.8182 107.993 71.8182 113.503C71.8182 122.318 66.2937 136.644 64.0839 135.542C62.979 135.542 61.8741 134.44 61.8741 133.338C65.1888 126.726 66.2937 120.115 66.2937 112.401C65.1888 115.707 65.1888 126.726 59.6643 131.134C58.5594 130.032 57.4545 126.726 55.2448 123.42C56.3497 113.503 59.6643 107.993 57.4545 96.9732C57.4545 105.789 58.5594 112.401 53.035 120.115C48.6154 115.707 40.8811 105.789 43.0909 99.1771C41.986 94.7693 40.8811 91.4634 39.7762 87.0555C40.8811 96.9732 41.986 101.381 39.7762 102.483C38.6713 103.585 34.2517 99.1771 26.5175 92.5653C26.5175 89.2594 25.4126 85.9535 24.3077 81.5457C24.3077 83.7496 25.4126 89.2594 24.3077 91.4634C20.993 87.0555 8.83916 83.7496 5.52448 81.5457C7.73427 84.8516 20.993 88.1575 23.2028 92.5653C18.7832 92.5653 14.3636 92.5653 7.73427 91.4634C13.2587 92.5653 18.7832 93.6673 24.3077 94.7693C26.5175 94.7693 28.7273 98.0752 30.9371 99.1771C25.4126 102.483 20.993 102.483 16.5734 101.381C26.5175 106.891 27.6224 94.7693 40.8811 107.993C41.986 109.095 44.1958 111.299 44.1958 113.503C38.6713 116.809 28.7273 117.911 23.2028 115.707C26.5175 120.115 41.986 116.809 46.4056 115.707C49.7203 120.115 54.1399 124.522 54.1399 126.726C48.6154 127.828 38.6713 126.726 33.1469 125.624C39.7762 126.726 47.5105 130.032 55.2448 130.032C56.3497 132.236 58.5594 134.44 59.6643 137.746C53.035 141.052 41.986 137.746 35.3566 135.542C37.5664 134.44 37.5664 133.338 38.6713 132.236C32.042 133.338 23.2028 127.828 17.6783 124.522C18.7832 123.42 19.8881 123.42 20.993 122.318C16.5734 120.115 14.3636 116.809 11.049 113.503C12.1538 113.503 13.2587 112.401 13.2587 112.401C9.94406 110.197 7.73427 106.891 4.41958 101.381C7.73427 100.279 6.62937 99.1771 8.83916 99.1771C5.52448 96.9732 1.1049 92.5653 0 88.1575C2.20979 88.1575 1.1049 87.0555 3.31469 87.0555C1.1049 84.8516 0 82.6476 0 77.1378C5.52448 76.0358 9.94406 77.1378 11.049 77.1378C12.1538 77.1378 9.94406 76.0358 11.049 73.8319C19.8881 72.7299 22.0979 79.3417 23.2028 72.7299C29.8322 73.8319 30.9371 72.7299 39.7762 79.3417Z" fill="#1B460C"/>
</g>
<defs>
<clipPath id="clip0_722_4134">
<rect width="158" height="177" fill="white"/>
</clipPath>
</defs>
</svg>
