<svg width="195" height="57" viewBox="0 0 195 57" fill="none" xmlns="http://www.w3.org/2000/svg">
<path d="M27.8733 27.552L24.9293 23.968C27.5319 23.7547 29.6226 23.1147 31.2013 22.048C32.7799 20.9813 33.9319 19.6587 34.6573 18.08C35.3826 16.5013 35.7453 14.8587 35.7453 13.152C35.7453 11.4453 35.3186 9.90933 34.4653 8.544C33.6119 7.136 32.2679 6.048 30.4333 5.28C28.5986 4.46933 26.1879 4.064 23.2013 4.064C21.5373 4.064 19.7879 4.29867 17.9533 4.768C16.1613 5.23733 14.4759 6.00533 12.8973 7.072C11.3613 8.13866 10.1026 9.54666 9.12125 11.296C8.13992 13.0027 7.64925 15.0933 7.64925 17.568C7.64925 18.6347 7.77725 19.616 8.03325 20.512C8.28925 21.408 8.71592 22.4533 9.31325 23.648C8.84392 24.032 8.31058 24.3307 7.71325 24.544C7.11592 24.7147 6.49725 24.8 5.85725 24.8C4.74792 24.8 3.74525 24.5013 2.84925 23.904C1.99592 23.3067 1.33458 22.4747 0.86525 21.408C0.395917 20.2987 0.16125 19.04 0.16125 17.632C0.16125 15.2 0.758584 12.96 1.95325 10.912C3.19058 8.82133 4.91858 6.98666 7.13725 5.408C9.35592 3.82933 11.9159 2.592 14.8173 1.696C17.7613 0.799998 20.9613 0.351997 24.4173 0.351997C28.7693 0.351997 32.3319 0.906665 35.1053 2.016C37.9213 3.12533 39.9906 4.59733 41.3133 6.432C42.6786 8.26667 43.3613 10.3147 43.3613 12.576C43.3613 14.5387 42.9773 16.352 42.2093 18.016C41.4413 19.68 40.3319 21.152 38.8813 22.432C37.4733 23.712 35.8306 24.8 33.9533 25.696C32.0759 26.5493 30.0493 27.168 27.8733 27.552ZM12.7053 44.896C12.0226 44.896 11.3186 44.7893 10.5933 44.576C9.86792 44.3627 9.29192 44.0213 8.86525 43.552C9.33458 43.168 9.76125 42.656 10.1453 42.016C10.5719 41.376 10.9133 40.6293 11.1693 39.776C11.4679 38.9227 11.7239 38.0053 11.9373 37.024L16.5453 13.536C16.8439 12.0853 17.2066 10.8693 17.6333 9.888C18.1026 8.90666 18.7426 8.18133 19.5533 7.712C20.4066 7.24267 21.4946 7.008 22.8173 7.008C24.0119 7.008 24.9506 7.24267 25.6333 7.712C26.3586 8.18133 26.7853 8.75733 26.9133 9.44C26.2306 9.78133 25.6759 10.272 25.2493 10.912C24.8653 11.5093 24.5879 12.192 24.4173 12.96C24.2466 13.6853 24.0546 14.4747 23.8413 15.328L18.9133 39.52C18.6999 40.7147 18.2946 41.7173 17.6973 42.528C17.0999 43.296 16.3746 43.872 15.5213 44.256C14.7106 44.6827 13.7719 44.896 12.7053 44.896ZM40.5453 51.488C39.1799 51.488 37.9426 51.1893 36.8333 50.592C35.7666 49.9947 34.6999 48.7147 33.6333 46.752C33.2066 45.9413 32.7373 44.832 32.2253 43.424C31.7133 42.016 31.1586 40.4373 30.5613 38.688C30.0066 36.9387 29.4093 35.168 28.7693 33.376C28.1293 31.584 27.4893 29.8773 26.8493 28.256C26.2093 26.6347 25.5693 25.2053 24.9293 23.968L31.1373 26.528C32.0759 27.168 32.9506 28.256 33.7613 29.792C34.5719 31.2853 35.3613 32.992 36.1293 34.912C36.9399 36.7893 37.7933 38.6453 38.6893 40.48C39.5853 42.3147 40.5879 43.936 41.6973 45.344C42.8066 46.752 44.0866 47.6907 45.5373 48.16C45.1959 49.184 44.5986 49.9947 43.7453 50.592C42.8919 51.1893 41.8253 51.488 40.5453 51.488ZM56.2228 45.28C54.0041 45.28 52.1694 44.9387 50.7188 44.256C49.3108 43.5733 48.2014 42.6773 47.3908 41.568C46.5801 40.416 46.0041 39.1787 45.6628 37.856C45.3641 36.4907 45.2148 35.168 45.2148 33.888C45.2148 30.9867 45.5561 28.128 46.2388 25.312C46.9641 22.496 48.0521 19.936 49.5028 17.632C50.9961 15.328 52.8734 13.4933 55.1348 12.128C57.4388 10.7627 60.1908 10.08 63.3908 10.08C65.6521 10.08 67.4868 10.4213 68.8948 11.104C70.3028 11.7867 71.4121 12.704 72.2228 13.856C73.0761 14.9653 73.6521 16.2027 73.9508 17.568C74.2494 18.8907 74.3988 20.1707 74.3988 21.408C74.3988 24.3093 74.0361 27.1893 73.3108 30.048C72.6281 32.864 71.5401 35.424 70.0468 37.728C68.5961 40.032 66.7188 41.8667 64.4148 43.232C62.1534 44.5973 59.4228 45.28 56.2228 45.28ZM57.4388 41.44C58.7188 41.44 59.8708 41.0133 60.8948 40.16C61.9188 39.3067 62.8148 38.1547 63.5828 36.704C64.3508 35.2107 64.9694 33.568 65.4388 31.776C65.9508 29.9413 66.3348 28.064 66.5908 26.144C66.8468 24.224 66.9748 22.368 66.9748 20.576C66.9748 18.6133 66.6334 17.0133 65.9508 15.776C65.2681 14.5387 64.0308 13.92 62.2388 13.92C60.9588 13.92 59.7854 14.3467 58.7188 15.2C57.6521 16.0533 56.7348 17.2053 55.9668 18.656C55.2414 20.1067 54.6228 21.7493 54.1108 23.584C53.5988 25.376 53.2148 27.2533 52.9588 29.216C52.7454 31.136 52.6388 32.992 52.6388 34.784C52.6388 36.704 52.9801 38.304 53.6628 39.584C54.3881 40.8213 55.6468 41.44 57.4388 41.44ZM87.6033 45.408C86.2379 45.408 84.8939 45.2587 83.5713 44.96C82.2913 44.704 81.1179 44.2987 80.0513 43.744C78.9846 43.1893 78.1313 42.4853 77.4913 41.632C76.8939 40.7787 76.5953 39.7973 76.5953 38.688C76.5953 37.4507 76.9153 36.4907 77.5553 35.808C78.1953 35.1253 78.9419 34.6347 79.7953 34.336C80.6913 33.9947 81.5446 33.824 82.3553 33.824C82.8246 33.824 83.2939 33.888 83.7633 34.016C84.2326 34.1013 84.6166 34.3147 84.9153 34.656C84.7019 35.2533 84.5099 35.8293 84.3393 36.384C84.1686 36.896 84.0833 37.4933 84.0833 38.176C84.1259 39.2427 84.5526 40.1173 85.3633 40.8C86.1739 41.44 87.2833 41.76 88.6913 41.76C90.2273 41.76 91.5073 41.3547 92.5312 40.544C93.5979 39.6907 94.1313 38.6027 94.1313 37.28C94.1313 36.1707 93.8326 35.1893 93.2353 34.336C92.6379 33.44 91.8486 32.6293 90.8673 31.904C89.9286 31.136 88.9473 30.3893 87.9233 29.664C86.7713 28.8533 85.6406 28 84.5312 27.104C83.4219 26.1653 82.5046 25.12 81.7793 23.968C81.0966 22.7733 80.7552 21.3653 80.7552 19.744C80.7552 18.1653 81.1606 16.7787 81.9713 15.584C82.7819 14.3467 83.8486 13.3227 85.1713 12.512C86.4939 11.7013 87.9659 11.104 89.5873 10.72C91.2513 10.2933 92.8939 10.08 94.5153 10.08C96.0086 10.08 97.4806 10.272 98.9313 10.656C100.425 11.04 101.662 11.7013 102.643 12.64C103.625 13.536 104.094 14.7733 104.051 16.352C104.051 18.016 103.518 19.296 102.451 20.192C101.427 21.088 100.297 21.536 99.0593 21.536C98.5899 21.536 98.0779 21.4933 97.5233 21.408C96.9686 21.28 96.4779 21.0453 96.0513 20.704C96.3499 20.1493 96.5633 19.5733 96.6913 18.976C96.8619 18.3787 96.9473 17.7813 96.9473 17.184C96.9473 16.0747 96.5633 15.2213 95.7953 14.624C95.0699 13.984 94.0246 13.664 92.6593 13.664C91.2939 13.664 90.1206 14.048 89.1393 14.816C88.2006 15.5413 87.7313 16.5653 87.7313 17.888C87.7313 18.8267 87.9659 19.68 88.4353 20.448C88.9046 21.216 89.5233 21.9413 90.2913 22.624C91.0593 23.3067 91.8913 23.968 92.7873 24.608C94.1099 25.504 95.4113 26.4427 96.6913 27.424C98.0139 28.3627 99.1019 29.4507 99.9553 30.688C100.851 31.9253 101.278 33.44 101.235 35.232C101.235 37.3227 100.574 39.136 99.2513 40.672C97.9713 42.1653 96.2859 43.3173 94.1953 44.128C92.1046 44.9813 89.9073 45.408 87.6033 45.408ZM119.053 45.28C117.859 45.28 116.877 45.152 116.109 44.896C115.384 44.64 114.381 44.32 113.101 43.936L106.829 43.424L112.973 11.36L119.117 10.592L118.349 16.352C119.501 14.4747 120.931 12.96 122.637 11.808C124.387 10.656 126.392 10.08 128.653 10.08C130.701 10.08 132.365 10.6133 133.645 11.68C134.925 12.704 135.864 14.1333 136.461 15.968C137.059 17.76 137.357 19.8293 137.357 22.176C137.357 24.992 136.973 27.7653 136.205 30.496C135.48 33.2267 134.371 35.7013 132.877 37.92C131.384 40.1387 129.485 41.9307 127.181 43.296C124.877 44.6187 122.168 45.28 119.053 45.28ZM109.773 56.8C108.664 56.8 107.64 56.4587 106.701 55.776C105.805 55.0933 105.357 53.8773 105.357 52.128C105.357 51.7867 105.421 51.1893 105.549 50.336C105.677 49.5253 105.827 48.5653 105.997 47.456C106.211 46.3893 106.424 45.2587 106.637 44.064C106.893 42.8693 107.128 41.7813 107.341 40.8L114.381 40.928C113.997 43.0187 113.656 45.1947 113.357 47.456C113.059 49.76 112.909 51.744 112.909 53.408C112.909 53.8347 112.931 54.2613 112.973 54.688C113.016 55.1147 113.08 55.4987 113.165 55.84C112.739 56.096 112.227 56.3093 111.629 56.48C111.032 56.6933 110.413 56.8 109.773 56.8ZM120.141 41.44C121.421 41.44 122.573 41.056 123.597 40.288C124.664 39.52 125.581 38.4747 126.349 37.152C127.16 35.8293 127.821 34.2933 128.333 32.544C128.845 30.7947 129.229 28.9387 129.485 26.976C129.784 24.9707 129.933 22.9653 129.933 20.96C129.933 19.168 129.635 17.7387 129.037 16.672C128.44 15.5627 127.373 15.008 125.837 15.008C124.301 15.008 122.979 15.456 121.869 16.352C120.803 17.248 119.928 18.4 119.245 19.808C118.563 21.216 118.072 22.688 117.773 24.224L114.957 39.456C115.725 40.1387 116.557 40.6507 117.453 40.992C118.392 41.2907 119.288 41.44 120.141 41.44ZM152.785 45.28C150.567 45.28 148.732 44.9387 147.281 44.256C145.873 43.5733 144.764 42.6773 143.953 41.568C143.143 40.416 142.567 39.1787 142.225 37.856C141.927 36.4907 141.777 35.168 141.777 33.888C141.777 30.9867 142.119 28.128 142.801 25.312C143.527 22.496 144.615 19.936 146.065 17.632C147.559 15.328 149.436 13.4933 151.697 12.128C154.001 10.7627 156.753 10.08 159.953 10.08C162.215 10.08 164.049 10.4213 165.457 11.104C166.865 11.7867 167.975 12.704 168.785 13.856C169.639 14.9653 170.215 16.2027 170.513 17.568C170.812 18.8907 170.961 20.1707 170.961 21.408C170.961 24.3093 170.599 27.1893 169.873 30.048C169.191 32.864 168.103 35.424 166.609 37.728C165.159 40.032 163.281 41.8667 160.977 43.232C158.716 44.5973 155.985 45.28 152.785 45.28ZM154.001 41.44C155.281 41.44 156.433 41.0133 157.457 40.16C158.481 39.3067 159.377 38.1547 160.145 36.704C160.913 35.2107 161.532 33.568 162.001 31.776C162.513 29.9413 162.897 28.064 163.153 26.144C163.409 24.224 163.537 22.368 163.537 20.576C163.537 18.6133 163.196 17.0133 162.513 15.776C161.831 14.5387 160.593 13.92 158.801 13.92C157.521 13.92 156.348 14.3467 155.281 15.2C154.215 16.0533 153.297 17.2053 152.529 18.656C151.804 20.1067 151.185 21.7493 150.673 23.584C150.161 25.376 149.777 27.2533 149.521 29.216C149.308 31.136 149.201 32.992 149.201 34.784C149.201 36.704 149.543 38.304 150.225 39.584C150.951 40.8213 152.209 41.44 154.001 41.44ZM181.606 45.344C180.411 45.344 179.366 44.96 178.47 44.192C177.574 43.424 177.126 42.3147 177.126 40.864C177.126 40.0107 177.254 38.816 177.51 37.28C177.766 35.7013 178.064 34.0373 178.406 32.288C178.747 30.5387 179.088 28.8747 179.43 27.296C179.814 25.6747 180.091 24.3733 180.262 23.392L182.118 14.24H177.574L177.83 12.32C179.878 11.552 181.904 10.528 183.91 9.248C185.915 7.968 187.686 6.56 189.222 5.024H191.206L189.926 11.36H194.918L194.342 14.24H189.286L184.87 36C184.742 36.6827 184.635 37.3013 184.55 37.856C184.464 38.368 184.4 38.8587 184.358 39.328C184.315 40.48 184.528 41.2907 184.998 41.76C185.467 42.1867 186.32 42.272 187.558 42.016C187.174 42.8267 186.683 43.4667 186.086 43.936C185.531 44.4053 184.87 44.7467 184.102 44.96C183.334 45.216 182.502 45.344 181.606 45.344Z" fill="url(#paint0_linear_722_4150)"/>
<defs>
<linearGradient id="paint0_linear_722_4150" x1="-54" y1="22" x2="244" y2="22" gradientUnits="userSpaceOnUse">
<stop stop-color="#D63185"/>
<stop offset="1" stop-color="#CA8AB3"/>
</linearGradient>
</defs>
</svg>
